<?xml version="1.0" encoding="UTF-8"?>
<svg width="320pt" height="110pt" version="1.1" viewBox="0 0 320 110" xmlns="http://www.w3.org/2000/svg" xmlns:cc="http://creativecommons.org/ns#" xmlns:dc="http://purl.org/dc/elements/1.1/" xmlns:rdf="http://www.w3.org/1999/02/22-rdf-syntax-ns#">
 <metadata>
  <rdf:RDF>
   <cc:Work rdf:about="">
    <dc:format>image/svg+xml</dc:format>
    <dc:type rdf:resource="http://purl.org/dc/dcmitype/StillImage"/>
    <dc:title/>
   </cc:Work>
  </rdf:RDF>
 </metadata>
 <polygon points="73 1 258 1 258 19 318 109 1 109" fill="#fff" stroke="#000"/>
 <g stroke="#000">
  <polygon points="73 1 97 1 25 109 1 109 37 55 1 1 25 1 49 37"/>
  <polygon points="31 109 55 109 103 37 103 109 127 109 127 1 103 1"/>
  <polygon points="132 109 156 109 156 37 180 73 204 37 204 109 228 109 228 1 198 1 180 37 156 1 132 1"/>
  <polygon points="234 109 318 109 302 85 258 85 258 1 234 1"/>
 </g>
</svg>
